<svg xmlns="http://www.w3.org/2000/svg" width="139.269" height="139.269" viewBox="0 0 139.269 139.269" fill="none">
  <path d="M 69.634 0 L 75.444 51.753 L 110.564 13.299 L 84.845 58.583 L 135.861 48.116 L 88.436 69.634 L 135.861 91.153 L 84.845 80.686 L 110.564 125.97 L 75.444 87.515 L 69.634 139.269 L 63.824 87.515 L 28.704 125.97 L 54.424 80.686 L 3.408 91.153 L 50.833 69.634 L 3.408 48.116 L 54.424 58.583 L 28.704 13.299 L 63.824 51.753 L 69.634 0 Z" fill="currentColor" fill-rule="nonzero"></path>
  <path d="M 69.634 0 L 70.439 -0.09 L 68.83 -0.09 L 69.634 0 Z M 75.444 51.753 L 74.64 51.844 L 74.839 53.617 L 76.042 52.299 L 75.444 51.753 Z M 110.564 13.299 L 111.269 13.699 L 109.967 12.753 L 110.564 13.299 Z M 84.845 58.583 L 84.141 58.183 L 83.26 59.735 L 85.008 59.376 L 84.845 58.583 Z M 135.861 48.116 L 136.195 48.854 L 135.698 47.323 L 135.861 48.116 Z M 88.436 69.634 L 88.101 68.897 L 86.476 69.634 L 88.101 70.372 L 88.436 69.634 Z M 135.861 91.153 L 135.698 91.946 L 136.195 90.415 L 135.861 91.153 Z M 84.845 80.686 L 85.008 79.892 L 83.26 79.534 L 84.141 81.085 L 84.845 80.686 Z M 110.564 125.97 L 109.967 126.516 L 111.269 125.57 L 110.564 125.97 Z M 75.444 87.515 L 76.042 86.969 L 74.839 85.652 L 74.64 87.425 L 75.444 87.515 Z M 69.634 139.269 L 68.83 139.359 L 70.439 139.359 L 69.634 139.269 Z M 63.824 87.515 L 64.629 87.425 L 64.43 85.652 L 63.227 86.969 L 63.824 87.515 Z M 28.704 125.97 L 28 125.57 L 29.302 126.516 L 28.704 125.97 Z M 54.424 80.686 L 55.128 81.085 L 56.009 79.534 L 54.261 79.892 L 54.424 80.686 Z M 3.408 91.153 L 3.074 90.415 L 3.571 91.946 L 3.408 91.153 Z M 50.833 69.634 L 51.168 70.372 L 52.793 69.634 L 51.168 68.897 L 50.833 69.634 Z M 3.408 48.116 L 3.571 47.323 L 3.074 48.854 L 3.408 48.116 Z M 54.424 58.583 L 54.261 59.376 L 56.009 59.735 L 55.128 58.183 L 54.424 58.583 Z M 28.704 13.299 L 29.302 12.753 L 28 13.699 L 28.704 13.299 Z M 63.824 51.753 L 63.227 52.299 L 64.43 53.617 L 64.629 51.844 L 63.824 51.753 Z M 69.634 0 L 68.83 0.09 L 74.64 51.844 L 75.444 51.753 L 76.249 51.663 L 70.439 -0.09 L 69.634 0 Z M 75.444 51.753 L 76.042 52.299 L 111.162 13.845 L 110.564 13.299 L 109.967 12.753 L 74.846 51.207 L 75.444 51.753 Z M 110.564 13.299 L 109.86 12.899 L 84.141 58.183 L 84.845 58.583 L 85.549 58.983 L 111.269 13.699 L 110.564 13.299 Z M 84.845 58.583 L 85.008 59.376 L 136.023 48.909 L 135.861 48.116 L 135.698 47.323 L 84.682 57.79 L 84.845 58.583 Z M 135.861 48.116 L 135.526 47.379 L 88.101 68.897 L 88.436 69.634 L 88.77 70.372 L 136.195 48.854 L 135.861 48.116 Z M 88.436 69.634 L 88.101 70.372 L 135.526 91.89 L 135.861 91.153 L 136.195 90.415 L 88.77 68.897 L 88.436 69.634 Z M 135.861 91.153 L 136.023 90.359 L 85.008 79.892 L 84.845 80.686 L 84.682 81.479 L 135.698 91.946 L 135.861 91.153 Z M 84.845 80.686 L 84.141 81.085 L 109.86 126.37 L 110.564 125.97 L 111.269 125.57 L 85.549 80.286 L 84.845 80.686 Z M 110.564 125.97 L 111.162 125.424 L 76.042 86.969 L 75.444 87.515 L 74.846 88.062 L 109.967 126.516 L 110.564 125.97 Z M 75.444 87.515 L 74.64 87.425 L 68.83 139.178 L 69.634 139.269 L 70.439 139.359 L 76.249 87.606 L 75.444 87.515 Z M 69.634 139.269 L 70.439 139.178 L 64.629 87.425 L 63.824 87.515 L 63.02 87.606 L 68.83 139.359 L 69.634 139.269 Z M 63.824 87.515 L 63.227 86.969 L 28.106 125.424 L 28.704 125.97 L 29.302 126.516 L 64.422 88.062 L 63.824 87.515 Z M 28.704 125.97 L 29.408 126.37 L 55.128 81.085 L 54.424 80.686 L 53.72 80.286 L 28 125.57 L 28.704 125.97 Z M 54.424 80.686 L 54.261 79.892 L 3.245 90.359 L 3.408 91.153 L 3.571 91.946 L 54.587 81.479 L 54.424 80.686 Z M 3.408 91.153 L 3.743 91.89 L 51.168 70.372 L 50.833 69.634 L 50.499 68.897 L 3.074 90.415 L 3.408 91.153 Z M 50.833 69.634 L 51.168 68.897 L 3.743 47.379 L 3.408 48.116 L 3.074 48.854 L 50.499 70.372 L 50.833 69.634 Z M 3.408 48.116 L 3.245 48.909 L 54.261 59.376 L 54.424 58.583 L 54.587 57.79 L 3.571 47.323 L 3.408 48.116 Z M 54.424 58.583 L 55.128 58.183 L 29.408 12.899 L 28.704 13.299 L 28 13.699 L 53.72 58.983 L 54.424 58.583 Z M 28.704 13.299 L 28.106 13.845 L 63.227 52.299 L 63.824 51.753 L 64.422 51.207 L 29.302 12.753 L 28.704 13.299 Z M 63.824 51.753 L 64.629 51.844 L 70.439 0.09 L 69.634 0 L 68.83 -0.09 L 63.02 51.663 L 63.824 51.753 Z" fill="currentColor" fill-rule="nonzero"></path>
</svg>