<svg xmlns="http://www.w3.org/2000/svg" width="172" height="172" viewBox="0 0 172 172" fill="none">
  <path d="M 86 0 L 92.644 65.552 L 136.55 16.425 L 103.394 73.363 L 167.791 59.425 L 107.5 86 L 167.791 112.575 L 103.394 98.637 L 136.55 155.575 L 92.644 106.448 L 86 172 L 79.356 106.448 L 35.45 155.575 L 68.606 98.637 L 4.209 112.575 L 64.5 86 L 4.209 59.425 L 68.606 73.363 L 35.45 16.425 L 79.356 65.552 L 86 0 Z" fill="currentColor" fill-rule="nonzero"></path>
  <path d="M 86 0 L 86.995 -0.101 L 85.005 -0.101 L 86 0 Z M 92.644 65.552 L 91.649 65.653 L 91.878 67.91 L 93.389 66.219 L 92.644 65.552 Z M 136.55 16.425 L 137.414 16.928 L 135.804 15.758 L 136.55 16.425 Z M 103.394 73.363 L 102.53 72.859 L 101.388 74.82 L 103.605 74.34 L 103.394 73.363 Z M 167.791 59.425 L 168.194 60.34 L 167.579 58.447 L 167.791 59.425 Z M 107.5 86 L 107.097 85.085 L 105.021 86 L 107.097 86.915 L 107.5 86 Z M 167.791 112.575 L 167.579 113.553 L 168.194 111.66 L 167.791 112.575 Z M 103.394 98.637 L 103.605 97.66 L 101.388 97.18 L 102.53 99.141 L 103.394 98.637 Z M 136.55 155.575 L 135.804 156.242 L 137.414 155.072 L 136.55 155.575 Z M 92.644 106.448 L 93.389 105.781 L 91.878 104.09 L 91.649 106.347 L 92.644 106.448 Z M 86 172 L 85.005 172.101 L 86.995 172.101 L 86 172 Z M 79.356 106.448 L 80.351 106.347 L 80.122 104.09 L 78.611 105.781 L 79.356 106.448 Z M 35.45 155.575 L 34.586 155.072 L 36.196 156.242 L 35.45 155.575 Z M 68.606 98.637 L 69.47 99.141 L 70.612 97.18 L 68.395 97.66 L 68.606 98.637 Z M 4.209 112.575 L 3.806 111.66 L 4.421 113.553 L 4.209 112.575 Z M 64.5 86 L 64.903 86.915 L 66.979 86 L 64.903 85.085 L 64.5 86 Z M 4.209 59.425 L 4.421 58.447 L 3.806 60.34 L 4.209 59.425 Z M 68.606 73.363 L 68.395 74.34 L 70.612 74.82 L 69.47 72.859 L 68.606 73.363 Z M 35.45 16.425 L 36.196 15.758 L 34.586 16.928 L 35.45 16.425 Z M 79.356 65.552 L 78.611 66.219 L 80.122 67.91 L 80.351 65.653 L 79.356 65.552 Z M 86 0 L 85.005 0.101 L 91.649 65.653 L 92.644 65.552 L 93.639 65.451 L 86.995 -0.101 L 86 0 Z M 92.644 65.552 L 93.389 66.219 L 137.295 17.091 L 136.55 16.425 L 135.804 15.758 L 91.898 64.886 L 92.644 65.552 Z M 136.55 16.425 L 135.685 15.921 L 102.53 72.859 L 103.394 73.363 L 104.258 73.866 L 137.414 16.928 L 136.55 16.425 Z M 103.394 73.363 L 103.605 74.34 L 168.002 60.402 L 167.791 59.425 L 167.579 58.447 L 103.182 72.385 L 103.394 73.363 Z M 167.791 59.425 L 167.388 58.509 L 107.097 85.085 L 107.5 86 L 107.903 86.915 L 168.194 60.34 L 167.791 59.425 Z M 107.5 86 L 107.097 86.915 L 167.388 113.491 L 167.791 112.575 L 168.194 111.66 L 107.903 85.085 L 107.5 86 Z M 167.791 112.575 L 168.002 111.598 L 103.605 97.66 L 103.394 98.637 L 103.182 99.615 L 167.579 113.553 L 167.791 112.575 Z M 103.394 98.637 L 102.53 99.141 L 135.685 156.079 L 136.55 155.575 L 137.414 155.072 L 104.258 98.134 L 103.394 98.637 Z M 136.55 155.575 L 137.295 154.909 L 93.389 105.781 L 92.644 106.448 L 91.898 107.114 L 135.804 156.242 L 136.55 155.575 Z M 92.644 106.448 L 91.649 106.347 L 85.005 171.899 L 86 172 L 86.995 172.101 L 93.639 106.549 L 92.644 106.448 Z M 86 172 L 86.995 171.899 L 80.351 106.347 L 79.356 106.448 L 78.361 106.549 L 85.005 172.101 L 86 172 Z M 79.356 106.448 L 78.611 105.781 L 34.705 154.909 L 35.45 155.575 L 36.196 156.242 L 80.102 107.114 L 79.356 106.448 Z M 35.45 155.575 L 36.315 156.079 L 69.47 99.141 L 68.606 98.637 L 67.742 98.134 L 34.586 155.072 L 35.45 155.575 Z M 68.606 98.637 L 68.395 97.66 L 3.998 111.598 L 4.209 112.575 L 4.421 113.553 L 68.818 99.615 L 68.606 98.637 Z M 4.209 112.575 L 4.612 113.491 L 64.903 86.915 L 64.5 86 L 64.097 85.085 L 3.806 111.66 L 4.209 112.575 Z M 64.5 86 L 64.903 85.085 L 4.612 58.509 L 4.209 59.425 L 3.806 60.34 L 64.097 86.915 L 64.5 86 Z M 4.209 59.425 L 3.998 60.402 L 68.395 74.34 L 68.606 73.363 L 68.818 72.385 L 4.421 58.447 L 4.209 59.425 Z M 68.606 73.363 L 69.47 72.859 L 36.315 15.921 L 35.45 16.425 L 34.586 16.928 L 67.742 73.866 L 68.606 73.363 Z M 35.45 16.425 L 34.705 17.091 L 78.611 66.219 L 79.356 65.552 L 80.102 64.886 L 36.196 15.758 L 35.45 16.425 Z M 79.356 65.552 L 80.351 65.653 L 86.995 0.101 L 86 0 L 85.005 -0.101 L 78.361 65.451 L 79.356 65.552 Z" fill="currentColor" fill-rule="nonzero"></path>
</svg>