<svg xmlns="http://www.w3.org/2000/svg" viewBox="0 0 234 234">
  <rect width="234" height="234" rx="50" fill="#0262fb"/>
  <path transform="translate(117,117) scale(0.78) translate(-113,-96.5)" fill="#fafaf8" fill-rule="nonzero" d="M 213.819 0.632 C 208.474 -2.044 201.791 4.641 195.109 4.641 C 184.413 4.641 176.392 5.622 167.936 9.846 C 159.396 14.14 157.951 19.159 154.291 22.982 C 150.474 20.168 144.585 20.698 141.332 24.148 C 138.079 27.599 137.902 33.509 140.916 37.161 C 134.904 46.591 123.277 54.286 113.175 57.682 C 122.822 62.186 129.088 70.068 129.088 70.068 C 115.972 60.961 109.608 59.398 107.114 59.221 C 77.095 62.162 26.865 66.794 11.648 96.907 C -1.718 127.657 -4.324 161.813 7.728 191.23 C 20.075 192.465 46.689 195.484 50.897 188.78 C 52.519 180.413 45.18 180.658 44.038 175.546 C 40.515 159.823 53.808 135.185 58.016 127.446 C 46.38 148.845 56.302 183.957 65.625 188.059 C 66.497 188.446 93.875 191.216 101.269 186.819 C 103.635 182.643 95.017 177.669 93.102 175.12 C 91.333 167.278 101.333 164.019 101.431 155.295 C 102.013 147.222 100.657 129.593 100.676 129.607 C 102.274 137.959 102.993 146.455 102.822 154.956 C 106.887 153.907 110.75 152.19 114.252 149.874 C 120.298 134.234 133.767 123.299 133.767 123.299 C 122.674 132.166 103.645 164.156 114.963 187.848 C 134.071 191.216 137.329 189.769 147.711 189.52 C 149.043 189.52 155.78 189.304 156.397 187.515 C 159.298 179.149 146.139 181.001 148.813 172.978 C 169.744 135.885 166.579 88.77 191.566 53.796 C 183.693 55.55 170.743 56.584 170.743 56.584 C 170.743 56.584 160.773 58.922 181.645 53.825 C 186.112 52.739 190.47 51.242 194.662 49.355 C 200.63 38.798 228.043 10.557 213.819 0.632 Z"/>
</svg>
